<svg width="27" height="27" viewBox="0 0 27 27" fill="none" xmlns="http://www.w3.org/2000/svg">
<g clip-path="url(#clip0_16_90)">
<path d="M17.0522 14.7319C17.0522 16.259 18.2925 17.4994 19.8197 17.4994C20.3928 17.498 20.9516 17.3198 21.4197 16.9891C21.8879 16.6584 22.2425 16.1913 22.4353 15.6515C22.466 15.5657 22.4795 15.4746 22.4749 15.3835C22.4703 15.2925 22.4478 15.2032 22.4086 15.1209C22.3694 15.0385 22.3143 14.9647 22.2465 14.9038C22.1787 14.8428 22.0995 14.7959 22.0134 14.7656C21.9276 14.7349 21.8365 14.7214 21.7454 14.726C21.6543 14.7306 21.5651 14.7531 21.4827 14.7923C21.4004 14.8315 21.3266 14.8866 21.2657 14.9544C21.2047 15.0223 21.1577 15.1015 21.1275 15.1875C20.9334 15.7444 20.4019 16.1156 19.8197 16.1156C19.0603 16.1156 18.4359 15.4912 18.4359 14.7319V13.7278C18.4359 12.9684 19.0603 12.344 19.8197 12.344C20.4103 12.344 20.9334 12.7153 21.1275 13.2722C21.2541 13.635 21.6506 13.8206 22.0134 13.694C22.0995 13.6638 22.1787 13.6168 22.2465 13.5559C22.3143 13.4949 22.3694 13.4211 22.4086 13.3388C22.4478 13.2565 22.4703 13.1672 22.4749 13.0761C22.4795 12.985 22.466 12.894 22.4353 12.8081C22.2425 12.2684 21.8879 11.8012 21.4197 11.4705C20.9516 11.1398 20.3928 10.9616 19.8197 10.9603C18.2925 10.9603 17.0522 12.2006 17.0522 13.7278V14.7319ZM10.7831 16.8075C10.7831 17.1872 11.0953 17.4994 11.475 17.4994C11.7534 17.4994 11.9956 17.3306 12.1053 17.0918C12.5248 17.3481 13.0051 17.4881 13.4966 17.4974C13.9882 17.5067 14.4734 17.385 14.9023 17.1447C15.3312 16.9044 15.6885 16.5542 15.9373 16.1302C16.1861 15.7062 16.3176 15.2235 16.3181 14.7319V13.7278C16.3175 13.2422 16.1893 12.7654 15.9462 12.345C15.7032 11.9247 15.3538 11.5756 14.9333 11.3329C14.5128 11.0901 14.0358 10.9622 13.5503 10.962C13.0647 10.9618 12.5876 11.0892 12.1669 11.3315V8.50499C12.1669 8.1253 11.8547 7.81311 11.475 7.81311C11.0953 7.81311 10.7831 8.1253 10.7831 8.50499V16.8075ZM12.1669 13.7278C12.1669 12.9684 12.7912 12.344 13.5506 12.344C14.31 12.344 14.9344 12.9684 14.9344 13.7278V14.7319C14.9344 15.4912 14.31 16.1156 13.5506 16.1156C12.7912 16.1156 12.1669 15.4912 12.1669 14.7319V13.7278ZM8.43496 17.0125C8.4793 17.1532 8.56717 17.2761 8.68592 17.3637C8.80466 17.4512 8.94812 17.4987 9.09562 17.4994C9.47531 17.4994 9.78749 17.1872 9.78749 16.8075V13.4662C9.78749 12.8016 9.52348 12.1642 9.05352 11.6943C8.58357 11.2243 7.94617 10.9603 7.28156 10.9603H5.63624C5.25655 10.9603 4.94437 11.2725 4.94437 11.6522C4.94437 12.0319 5.25655 12.344 5.63624 12.344H7.28156C7.89749 12.344 8.40374 12.8419 8.40374 13.4662V13.6687H6.45468C5.39999 13.6687 4.53937 14.5294 4.53937 15.584C4.53937 16.6387 5.39999 17.4994 6.45468 17.4994H6.86812C7.44862 17.4994 7.98777 17.3188 8.43496 17.0125ZM5.79656 15.584C5.79656 15.2212 6.09187 14.9259 6.45468 14.9259H8.36999C8.27718 15.6684 7.63593 16.2422 6.86812 16.2422H6.45468C6.09187 16.2422 5.79656 15.9469 5.79656 15.584Z" fill="black"/>
<path d="M5.0625 0.84375C4.50849 0.84375 3.9599 0.952871 3.44805 1.16488C2.93621 1.3769 2.47114 1.68765 2.07939 2.07939C1.28822 2.87056 0.84375 3.94362 0.84375 5.0625V21.9375C0.84375 23.0564 1.28822 24.1294 2.07939 24.9206C2.47114 25.3124 2.93621 25.6231 3.44805 25.8351C3.9599 26.0471 4.50849 26.1562 5.0625 26.1562H21.9375C23.0564 26.1562 24.1294 25.7118 24.9206 24.9206C25.7118 24.1294 26.1562 23.0564 26.1562 21.9375V5.0625C26.1562 4.50849 26.0471 3.9599 25.8351 3.44805C25.6231 2.93621 25.3124 2.47114 24.9206 2.07939C24.5289 1.68765 24.0638 1.3769 23.5519 1.16488C23.0401 0.952871 22.4915 0.84375 21.9375 0.84375H5.0625ZM2.53125 5.0625C2.53125 4.39117 2.79793 3.74734 3.27264 3.27264C3.74734 2.79793 4.39117 2.53125 5.0625 2.53125H21.9375C22.6088 2.53125 23.2527 2.79793 23.7274 3.27264C24.2021 3.74734 24.4688 4.39117 24.4688 5.0625V21.9375C24.4688 22.6088 24.2021 23.2527 23.7274 23.7274C23.2527 24.2021 22.6088 24.4688 21.9375 24.4688H5.0625C4.39117 24.4688 3.74734 24.2021 3.27264 23.7274C2.79793 23.2527 2.53125 22.6088 2.53125 21.9375V5.0625Z" fill="black"/>
</g>
<defs>
<clipPath id="clip0_16_90">
<rect width="27" height="27" fill="white"/>
</clipPath>
</defs>
</svg>
