<svg width="32" height="33" viewBox="0 0 32 33" fill="none" xmlns="http://www.w3.org/2000/svg">
<path d="M26.4854 11.6394C26.673 10.9604 26.7137 10.2471 26.6045 9.55007C26.4953 8.85304 26.239 8.18927 25.8536 7.60569C25.4682 7.02212 24.9631 6.533 24.3742 6.17293C23.7852 5.81287 23.1268 5.59065 22.4454 5.522C22.1719 4.71297 21.6614 4.01161 20.9844 3.51498C20.3074 3.01835 19.4975 2.75102 18.6667 2.75C17.6795 2.75345 16.7288 3.13578 16 3.8225C15.2712 3.13578 14.3206 2.75345 13.3334 2.75C11.5987 2.75 10.12 3.89262 9.56669 5.52063C8.88407 5.58756 8.22409 5.80858 7.63358 6.16801C7.04306 6.52745 6.53649 7.01649 6.14978 7.60044C5.76307 8.18438 5.50571 8.84894 5.39595 9.54695C5.2862 10.245 5.32673 10.9593 5.51469 11.6394C4.65892 12.1092 3.94237 12.8091 3.44098 13.6648C2.93958 14.5206 2.67204 15.5002 2.66669 16.5C2.66669 17.9781 3.23735 19.3683 4.22935 20.394C4.0763 20.9147 3.99901 21.4559 4.00002 22C4.00002 24.6909 5.88269 26.9363 8.40802 27.4093C8.77943 28.2537 9.37823 28.9704 10.1332 29.474C10.8882 29.9776 11.7675 30.2469 12.6667 30.25C13.972 30.25 15.152 29.6904 16 28.7939C16.4327 29.2546 16.9507 29.6209 17.5233 29.871C18.0959 30.1211 18.7115 30.25 19.3334 30.25C20.2311 30.2483 21.1094 29.9803 21.8635 29.4781C22.6177 28.9759 23.2158 28.2606 23.5867 27.4175C24.3306 27.2823 25.0383 26.9858 25.6629 26.5477C26.2876 26.1097 26.815 25.5399 27.2105 24.8762C27.6059 24.2124 27.8603 23.4697 27.9568 22.6971C28.0534 21.9244 27.99 21.1395 27.7707 20.394C28.2666 19.8827 28.6599 19.2757 28.928 18.6075C29.1962 17.9393 29.3339 17.2231 29.3334 16.5C29.328 15.5002 29.0605 14.5206 28.5591 13.6648C28.0577 12.8091 27.3411 12.1092 26.4854 11.6394ZM12.6667 27.5C11.7187 27.5 10.8934 26.807 10.7067 25.8528L10.424 24.75H9.33335C7.86269 24.75 6.66669 23.5166 6.66669 22C6.66669 21.516 6.78002 21.0623 7.00402 20.6511L7.61202 19.5291L6.56669 18.8279C6.18915 18.5767 5.87854 18.2322 5.66312 17.8256C5.44771 17.419 5.33435 16.9633 5.33335 16.5C5.33335 15.1566 6.29735 13.992 7.57602 13.7885L9.83335 13.431L8.42135 11.5803C8.1699 11.2459 8.02407 10.8401 8.0036 10.4175C7.98312 9.99496 8.08898 9.57611 8.30687 9.21762C8.52475 8.85913 8.84414 8.5783 9.22184 8.41311C9.59954 8.24792 10.0173 8.20634 10.4187 8.294L12 8.53463V6.875C12 6.51033 12.1405 6.16059 12.3905 5.90273C12.6406 5.64487 12.9797 5.5 13.3334 5.5C13.687 5.5 14.0261 5.64487 14.2762 5.90273C14.5262 6.16059 14.6667 6.51033 14.6667 6.875V25.4375C14.6667 26.5746 13.7694 27.5 12.6667 27.5ZM25.4334 18.8265L24.388 19.5278L24.996 20.6498C25.22 21.0641 25.3325 21.5142 25.3334 22C25.3334 23.5166 24.1374 24.75 22.6 24.75H21.5094L21.2934 25.8528C21.2006 26.3181 20.9549 26.7362 20.5978 27.0363C20.2407 27.3364 19.794 27.5002 19.3334 27.5C18.2307 27.5 17.3334 26.5746 17.3334 25.4375V6.875C17.3334 6.116 17.9307 5.5 18.6667 5.5C19.4027 5.5 20 6.116 20 6.94375V8.60338L21.5814 8.294C21.9827 8.20634 22.4005 8.24792 22.7782 8.41311C23.1559 8.5783 23.4753 8.85913 23.6932 9.21762C23.9111 9.57611 24.0169 9.99496 23.9964 10.4175C23.976 10.8401 23.8301 11.2459 23.5787 11.5803L22.1667 13.4324L24.424 13.7899C25.0489 13.8937 25.6176 14.2233 26.0285 14.7198C26.4393 15.2163 26.6656 15.8473 26.6667 16.5C26.6667 17.4391 26.2054 18.3081 25.4334 18.8265Z" fill="black"/>
</svg>
